<svg width="152" height="52" viewBox="0 0 152 52" fill="none" xmlns="http://www.w3.org/2000/svg">
<path d="M8.88594 26.472V25.0652H4.47814V26.472H1.40675V29.3323H11.9573V26.472H8.88594ZM17.8657 25.5341H13.4579V37.5853H17.8657V33.4822H19.6241V29.9654H17.8657V25.5341ZM5.58009 29.7544C4.39217 29.7544 3.43871 30.0748 2.71971 30.7156C2.0007 31.3565 1.6412 32.2084 1.6412 33.2712C1.6412 34.3341 2.0007 35.186 2.71971 35.8268C3.43871 36.4677 4.39217 36.7881 5.58009 36.7881H7.78399C8.97191 36.7881 9.92537 36.4677 10.6444 35.8268C11.3634 35.186 11.7229 34.3341 11.7229 33.2712C11.7229 32.2084 11.3634 31.3565 10.6444 30.7156C9.92537 30.0748 8.97191 29.7544 7.78399 29.7544H5.58009ZM6.14279 33.8339C5.97085 33.8339 5.83018 33.7792 5.72076 33.6698C5.61135 33.5604 5.55664 33.4197 5.55664 33.2478C5.55664 33.0759 5.61135 32.9352 5.72076 32.8258C5.83018 32.7163 5.97085 32.6616 6.14279 32.6616H7.24474C7.41667 32.6616 7.55735 32.7163 7.66676 32.8258C7.77617 32.9352 7.83088 33.0759 7.83088 33.2478C7.83088 33.4197 7.77617 33.5604 7.66676 33.6698C7.55735 33.7792 7.41667 33.8339 7.24474 33.8339H6.14279ZM1.87566 37.5853V43.3529L17.8657 43.3295V40.0471H6.28346V37.5853H1.87566ZM33.033 28.5821V30.1764H37.2064L37.4409 25.7686H21.4977V28.5821H33.033ZM21.0288 33.5057H37.9098V30.8798H21.0288V33.5057ZM37.4409 40.0705V34.2091H21.4977V36.7881H33.0565V37.4915H21.4977V43.3529H37.6753V40.7739H25.9055V40.0705H37.4409ZM54.4354 31.1142C55.2638 31.1142 55.9281 30.8719 56.4282 30.3874C56.9284 29.8872 57.1785 29.2307 57.1785 28.418C57.1785 27.6052 56.9284 26.9565 56.4282 26.472C55.9281 25.9718 55.2638 25.7217 54.4354 25.7217H43.9317C43.1032 25.7217 42.4389 25.9718 41.9388 26.472C41.4386 26.9565 41.1885 27.6052 41.1885 28.418C41.1885 29.2307 41.4386 29.8872 41.9388 30.3874C42.4389 30.8719 43.1032 31.1142 43.9317 31.1142H54.4354ZM45.9949 28.8165C45.8855 28.8165 45.7917 28.7775 45.7135 28.6993C45.6354 28.6212 45.5963 28.5274 45.5963 28.418C45.5963 28.2929 45.6354 28.1991 45.7135 28.1366C45.7917 28.0585 45.8855 28.0194 45.9949 28.0194H52.3721C52.4972 28.0194 52.591 28.0585 52.6535 28.1366C52.7316 28.1991 52.7707 28.2929 52.7707 28.418C52.7707 28.5274 52.7316 28.6212 52.6535 28.6993C52.591 28.7775 52.4972 28.8165 52.3721 28.8165H45.9949ZM40.7196 34.3966H57.6474V31.841H40.7196V34.3966ZM57.1785 40.3753V35.0766H41.1885V37.3742H52.7707V38.0542H41.1885V43.3529H57.413V41.0318H45.5963V40.3753H57.1785Z" fill="#FE7F68"/>
<path d="M91.9505 3.84081H88.0116V11.109H87.3082V4.07527H83.3693V21.6596H87.3082V14.6259H88.0116V21.894H91.9505V3.84081ZM82.4315 21.1907V4.30973H78.985V9.58502H78.0471V4.30973H74.6006V21.1907H82.4315ZM78.985 12.8674V17.9083H78.0471V12.8674H78.985ZM106.917 13.0784C108.261 13.0784 109.348 12.6799 110.176 11.8827C111.004 11.0699 111.419 9.99923 111.419 8.67064C111.419 7.34205 111.004 6.27917 110.176 5.48202C109.348 4.66923 108.261 4.26284 106.917 4.26284H99.5082C98.164 4.26284 97.0777 4.66923 96.2493 5.48202C95.4208 6.27917 95.0066 7.34205 95.0066 8.67064C95.0066 9.99923 95.4208 11.0699 96.2493 11.8827C97.0777 12.6799 98.164 13.0784 99.5082 13.0784H106.917ZM100.329 9.53813C100.063 9.53813 99.8443 9.45998 99.6723 9.30367C99.5004 9.13174 99.4144 8.91291 99.4144 8.64719C99.4144 8.39711 99.5004 8.19391 99.6723 8.0376C99.8443 7.86567 100.063 7.7797 100.329 7.7797H106.096C106.362 7.7797 106.581 7.86567 106.753 8.0376C106.925 8.19391 107.011 8.39711 107.011 8.64719C107.011 8.91291 106.925 9.13174 106.753 9.30367C106.581 9.45998 106.362 9.53813 106.096 9.53813H100.329ZM111.653 14.8369H94.7722V18.3772H101.009V21.894H105.417V18.3772H111.653V14.8369ZM130.875 4.07527H126.467V21.894H130.875V14.368H132.633V10.8511H130.875V4.07527ZM114.463 4.30973V21.1907H124.896V17.6738H118.871V7.82659H124.427V4.30973H114.463Z" fill="#FE7F68"/>
<path d="M12.6607 16.4984H7.03373V3.41569H1.40675V21H12.6607V16.4984ZM19.692 16.2171V17.2018C19.9734 17.233 20.2547 17.2565 20.5361 17.2721C20.8174 17.2878 21.0988 17.2956 21.3801 17.2956C23.1308 17.2956 24.897 17.0142 26.6789 16.4515L27.3354 20.578C25.2252 21.1407 23.1464 21.422 21.0988 21.422C18.4729 21.422 16.5738 20.8124 15.4015 19.5933C14.2292 18.3584 13.643 16.4828 13.643 13.9663C13.643 11.4498 14.2292 9.58192 15.4015 8.36274C16.5894 7.12793 18.4885 6.51053 21.0988 6.51053C22.4118 6.51053 23.5059 6.59649 24.3812 6.76843C25.2565 6.92473 25.9599 7.19827 26.4913 7.58903C27.0384 7.96416 27.4213 8.47997 27.6402 9.13645C27.8746 9.7773 27.9918 10.5901 27.9918 11.5748C27.9918 12.3876 27.8512 13.091 27.5698 13.6849C27.3041 14.2633 26.8508 14.74 26.21 15.1151C25.5691 15.4902 24.7173 15.7716 23.6544 15.9592C22.5915 16.1311 21.2707 16.2171 19.692 16.2171ZM19.692 11.8093V12.9581H20.8409C21.5286 12.9581 22.021 12.8878 22.318 12.7471C22.6306 12.6064 22.7869 12.2782 22.7869 11.7624V10.6135H21.638C20.9503 10.6135 20.4501 10.6839 20.1375 10.8245C19.8405 10.9652 19.692 11.2935 19.692 11.8093ZM36.7543 6.51053C41.2559 6.51053 43.5067 8.05794 43.5067 11.1528V21H40.6932L39.0989 19.4057C38.8176 19.7183 38.4815 19.9996 38.0907 20.2497C37.7156 20.4998 37.3092 20.7108 36.8716 20.8828C36.4339 21.0547 35.9884 21.1876 35.5352 21.2813C35.0819 21.3751 34.6442 21.422 34.2222 21.422C33.425 21.422 32.706 21.3361 32.0652 21.1641C31.44 21.0078 30.9085 20.7499 30.4709 20.3904C30.0332 20.0309 29.6972 19.5542 29.4627 18.9602C29.2282 18.3663 29.111 17.6394 29.111 16.7798C29.111 13.4036 31.6588 11.7155 36.7543 11.7155H37.8797V10.7073C37.5827 10.6917 37.3092 10.6761 37.0591 10.6604C36.8247 10.6448 36.6058 10.637 36.4026 10.637C34.2925 10.637 32.4716 10.8949 30.9398 11.4107L30.2599 7.37802C32.1355 6.79969 34.3003 6.51053 36.7543 6.51053ZM34.7849 16.1702V17.319H35.9572C36.77 17.319 37.3014 17.2252 37.5515 17.0377C37.7703 16.8345 37.8797 16.5922 37.8797 16.3108V14.9744H36.7309C36.0588 14.9744 35.5664 15.0448 35.2538 15.1855C34.9412 15.3261 34.7849 15.6544 34.7849 16.1702ZM46.0315 21V6.93255H48.845L50.3924 8.50341C51.5178 7.4718 52.9089 6.8075 54.5658 6.51053L54.894 11.8327C54.6752 11.8327 54.4095 11.864 54.0969 11.9265C53.7842 11.989 53.4638 12.0672 53.1356 12.161C52.823 12.2547 52.5338 12.372 52.2681 12.5126C52.0024 12.6377 51.7992 12.7862 51.6585 12.9581V21H46.0315ZM56.5867 6.93255H59.4002L60.8069 8.33929C62.5419 7.12011 64.4176 6.51053 66.4339 6.51053C67.7625 6.51053 68.7941 6.79969 69.5287 7.37802C70.279 7.94072 70.6541 8.73006 70.6541 9.74604V21H65.0272V11.1528H64.1597C63.5188 11.1528 63.0343 11.2231 62.706 11.3638C62.3778 11.4888 62.2137 11.778 62.2137 12.2313V21H56.5867V6.93255Z" fill="white"/>
<path d="M76.7868 43.3529V25.7686H71.1598V31.9817H66.9396V25.7686H61.3126V43.3529H66.9396V37.1398H71.1598V43.3529H76.7868ZM86.2653 28.8634C90.7669 28.8634 93.0177 30.4109 93.0177 33.5057V43.3529H90.2042L88.6099 41.7586C88.3285 42.0712 87.9925 42.3526 87.6017 42.6026C87.2266 42.8527 86.8202 43.0637 86.3825 43.2357C85.9449 43.4076 85.4994 43.5405 85.0461 43.6343C84.5929 43.728 84.1552 43.7749 83.7332 43.7749C82.936 43.7749 82.217 43.689 81.5762 43.517C80.9509 43.3607 80.4195 43.1028 79.9819 42.7433C79.5442 42.3838 79.2081 41.9071 78.9737 41.3131C78.7392 40.7192 78.622 39.9923 78.622 39.1327C78.622 35.7565 81.1698 34.0684 86.2653 34.0684H87.3907V33.0602C87.0937 33.0446 86.8202 33.029 86.5701 33.0133C86.3357 32.9977 86.1168 32.9899 85.9136 32.9899C83.8035 32.9899 81.9826 33.2478 80.4508 33.7636L79.7708 29.7309C81.6465 29.1526 83.8113 28.8634 86.2653 28.8634ZM84.2959 38.5231V39.6719H85.4682C86.2809 39.6719 86.8124 39.5781 87.0625 39.3906C87.2813 39.1874 87.3907 38.9451 87.3907 38.6638V37.3273H86.2419C85.5698 37.3273 85.0774 37.3977 84.7648 37.5384C84.4522 37.679 84.2959 38.0073 84.2959 38.5231ZM95.5425 29.2855H98.356L99.7627 30.6922C101.498 29.473 103.373 28.8634 105.39 28.8634C106.718 28.8634 107.75 29.1526 108.485 29.7309C109.235 30.2936 109.61 31.083 109.61 32.0989V43.3529H103.983V33.5057H103.115C102.475 33.5057 101.99 33.576 101.662 33.7167C101.334 33.8417 101.169 34.1309 101.169 34.5842V43.3529H95.5425V29.2855ZM111.529 47.1511L112.256 42.9543C113.866 43.5014 115.734 43.7749 117.86 43.7749C118.172 43.7749 118.438 43.7671 118.657 43.7515C118.891 43.7515 119.071 43.7437 119.196 43.728V42.7433C118.352 42.7433 117.664 42.7277 117.133 42.6964C116.601 42.6495 116.203 42.587 115.937 42.5089C115.406 42.3682 115.07 42.2275 114.929 42.0868C114.757 41.9462 114.655 41.8367 114.624 41.7586C114.593 41.6648 114.577 41.532 114.577 41.36L115.421 38.9451C114.077 38.695 113.053 38.187 112.35 37.4211C111.647 36.6396 111.295 35.4282 111.295 33.787C111.295 32.1615 111.85 30.9345 112.96 30.1061C114.069 29.2776 115.867 28.8634 118.352 28.8634C118.805 28.8634 119.227 28.8791 119.618 28.9103C120.009 28.926 120.384 28.965 120.744 29.0276L123.205 27.1519L126.16 29.9888L124.542 31.8645C124.792 32.5053 124.917 33.3494 124.917 34.3966C124.917 35.1313 124.831 35.7721 124.659 36.3192C124.487 36.8662 124.198 37.3273 123.792 37.7025C123.401 38.0776 122.885 38.3746 122.244 38.5934C121.603 38.7966 120.806 38.9373 119.853 39.0154L119.735 39.6954C120.751 39.7579 121.611 39.8595 122.314 40.0002C123.018 40.1252 123.588 40.3284 124.026 40.6098C124.464 40.8911 124.776 41.2506 124.964 41.6883C125.167 42.1259 125.269 42.6808 125.269 43.3529C125.269 44.4783 125.042 45.3536 124.589 45.9788C124.135 46.604 123.541 47.0651 122.807 47.3621C122.088 47.6591 121.267 47.8389 120.345 47.9014C119.438 47.9639 118.524 47.9952 117.602 47.9952C115.742 47.9952 113.718 47.7138 111.529 47.1511ZM116.594 33.787V35.6158H117.461C118.133 35.6158 118.626 35.5455 118.938 35.4048C119.251 35.2641 119.407 34.9437 119.407 34.4435V32.6148H118.516C117.844 32.6148 117.352 32.6851 117.039 32.8258C116.742 32.9664 116.594 33.2869 116.594 33.787ZM127.064 29.2855H132.691V39.6719H133.559C134.246 39.6719 134.739 39.6016 135.036 39.4609C135.348 39.3202 135.505 38.992 135.505 38.4762V29.2855H141.131V43.3529H138.318L136.677 41.7586C135.551 43.1028 133.949 43.7749 131.87 43.7749C130.198 43.7749 128.979 43.4232 128.213 42.7199C127.447 42.0009 127.064 40.8051 127.064 39.1327V29.2855ZM143.945 25.0652L149.572 24.6432V39.3202C149.869 39.3828 150.135 39.4296 150.369 39.4609C150.604 39.4922 150.799 39.5156 150.955 39.5312L150.698 43.6577C148.306 43.6577 146.72 43.517 145.938 43.2357C145.282 43.0012 144.781 42.6964 144.438 42.3213C144.109 41.9462 143.945 41.4069 143.945 40.7035V25.0652Z" fill="white"/>
</svg>
